# xmcd CD database file
#
# Track frame offsets:
#	150
#	37320
#	71435
#	128122
#	167937
#	200948
#
# Disc length: 3508 seconds
#
# Revision: 0
# Processed by: cddbd v1.5.2PL0 Copyright (c) Steve Scherf et al.
# Submitted via: CDex 1.51
#
DISCID=5e0db206
DTITLE=the fonda-stevens group - live at the bunker
DYEAR=2000
DGENRE=Jazz
TTITLE0=for us
TTITLE1=borrowed time
TTITLE2=don't go baby
TTITLE3=circle
TTITLE4=haiku
TTITLE5=oh lord it's nice to sit on your porch today
EXTD=YEAR: 2000
EXTT0=
EXTT1=
EXTT2=
EXTT3=
EXTT4=
EXTT5=
PLAYORDER=
